<?xml version="1.0" encoding="UTF-8" standalone="no"?>
<svg xmlns:rdf="http://www.w3.org/1999/02/22-rdf-syntax-ns#" xmlns="http://www.w3.org/2000/svg" viewBox="0 0 669.39548 502.04504" height="502.05" width="669.4" version="1.1" xmlns:cc="http://creativecommons.org/ns#" xmlns:dc="http://purl.org/dc/elements/1.1/">
 <g transform="translate(-16.677 -8.0862)">
  <g transform="translate(0,-527.95)">
   <path d="m499.7 1036.5c-7.1836-2.8614-10.119-11.59-10.995-15.403-1.5006-7.5479-2.1544-5.1996-2.1832-31.049-0.0247-22.008-6.5415-89.326-9.3581-96.666-1.5636-4.0747-5.0298-4.7256-5.016-0.94214 0.10498 28.672-2.3219 80.165-3.9841 84.537-1.2104 3.1832-2.2005 8.853-2.2005 12.6 0 15.548-9.044 31.367-20.691 36.192-5.0784 2.1035-6.725 1.8279-12.147-2.0331-3.45-2.4566-5.8487-5.1585-6.7338-6.564-1.8452-2.9293-2.8085-4.041-3.8577-6.8137-1.6992-4.4898-1.6517-9.0065 0.12556-19.899 1.1754-7.2091 3.5263-17.654 5.2241-23.212 1.698-5.5576 3.0873-17.047 3.0873-25.533 0-13.194-1.2326-18.587-8.5111-37.24-27.18-69.656-34.444-76.434-52.693-49.17-10.942 16.348-41.59 50.222-55.099 60.9-15.232 12.04-22.128 20.109-22.128 25.893 0 3.5974 5.19 10.779 17.203 23.806l17.203 18.654h10.406c8.5063 0 11.708 1.0992 17.533 6.0206 6.9472 5.8686 7.0473 6.1669 3.9654 11.836-3.1204 5.7401-3.4399 5.8231-24.634 6.407-19.041 0.5246-21.83 0.1483-24.627-3.3211-1.7351-2.152-6.4922-6.1234-10.571-8.8253-13.289-8.8028-46.332-41.656-55.146-54.83-4.7342-7.0759-9.9567-12.865-11.606-12.865-4.5156 0-15.375 16.233-15.375 22.983 0 3.2441 3.1278 10.747 6.9508 16.673 3.8227 5.9263 9.1663 14.944 11.874 20.038 4.4417 8.3562 5.8087 9.3815 13.963 10.474 9.9882 1.3385 18.277 8.7142 14.673 13.056-1.1019 1.3278-1.4819 4.408-0.84458 6.845 1.5338 5.865-5.4732 7.6593-22.547 5.7735-19.943-2.2025-21.245-2.8594-32.271-16.286-13.571-16.525-27.071-42.894-34.241-66.878-5.7336-19.181-5.7389-19.255-2.2692-31.906 13.874-30.325 4.4324-60.067 0.56422-78.551-0.78674-4.5286-3.6807-13.039-6.4308-18.913-2.7501-5.8736-5.0002-11.952-5.0002-13.508 0-4.1078-7.4728-18.934-11.032-21.888-1.6745-1.3899-10.821-2.8845-20.326-3.3217-17.268-0.79436-31.65-4.9534-44.019-12.73-14.269-8.9711-39.895-27.906-39.895-29.477 0-0.94566-3.7071-5.5774-8.2379-10.293-4.5306-4.7157-8.8081-11.044-9.5051-14.062-0.69699-3.0187-2.9125-9.1938-4.9232-13.722-2.0107-4.5286-4.7396-15.404-6.064-24.167-4.896-40.036 19.7-74.22 36.945-91.622 41.551-39.487 77.458-45.798 86.049-39.192 9.9796 7.6735-31.604 15.598-75.553 83.854-8.6998 13.512-12.536 22.381-12.536 36.52 0 14.163 5.0735 27.629 14.402 38.227 17.084 19.408 56.784 40.243 71.996 37.785 5.1865-0.83841 9.8476-4.0914 16.982-11.852 5.4086-5.8831 9.8338-11.533 9.8338-12.556 9.7827-15.5 24.565-25.022 37.052-36.976 41.443-38.649 86.267-60.261 156.86-75.509 39.537-9.0032 81.887-0.5731 119.63 9.7716 19.645 3.572 43.506 31.955 50.513 18.908 5.1743-9.9272 7.0039-22.778 7.2816-51.145 0.12969-13.355 1.0558-21.954 2.4111-22.408 3.9782-1.3337 16.005 8.4656 25.139 20.482 8.515 11.203 7.8888 17.925 12.101 18.985 10.473 0.91684 21.787-3.0974 30.521-1.8353 11.262 0.43412 18.157 1.6521 28.115 5.7147 2.9358 1.1978 6.8116-3.6484 14.46-10.277 14.058-12.184 32.267-21.061 34.847-16.989 2.8582 4.5121 2.1636 12.654-2.2606 26.503-2.2643 7.0878-4.127 14.85-4.1393 17.25-0.0205 2.3997-1.4096 8.937-3.1054 14.527-2.0858 6.876-2.6799 14.201-1.8366 22.643 2.3808 23.833-13.606 53.496-36.861 68.397-5.5887 3.5811-9.6049 8.7231-13.893 17.787-3.3176 7.0125-6.0325 13.998-6.0333 15.524 0 10.895-36.486 70.596-56.723 92.832-17.404 19.123-24.466 35.25-31.596 72.158-2.2964 11.888-5.6636 26.708-7.4827 32.935-7.7046 26.372-7.9135 28.889-3.749 45.15 3.5148 13.724 4.5257 15.464 9.8046 16.876 12.48 3.3375 20.048 17.139 13.17 24.017-2.7176 2.7175-36.071 3.4646-39.955 0.8948z"/>
  </g>
  <g transform="translate(0,-527.95)">
   <path d="m499.7 1036.5c-7.1836-2.8614-10.119-11.59-10.995-15.403-1.5006-7.5479-2.1544-5.1996-2.1832-31.049-0.0247-22.008-6.5415-89.326-9.3581-96.666-1.5636-4.0747-5.0298-4.7256-5.016-0.94214 0.10498 28.672-2.3219 80.165-3.9841 84.537-1.2104 3.1832-2.2005 8.853-2.2005 12.6 0 15.548-9.044 31.367-20.691 36.192-5.0784 2.1035-6.725 1.8279-12.147-2.0331-3.45-2.4566-5.8487-5.1585-6.7338-6.564-1.8452-2.9293-2.8085-4.041-3.8577-6.8137-1.6992-4.4898-1.6517-9.0065 0.12556-19.899 1.1754-7.2091 3.5263-17.654 5.2241-23.212 1.698-5.5576 3.0873-17.047 3.0873-25.533 0-13.194-1.2326-18.587-8.5111-37.24-27.18-69.656-34.444-76.434-52.693-49.17-10.942 16.348-41.59 50.222-55.099 60.9-15.232 12.04-22.128 20.109-22.128 25.893 0 3.5974 5.19 10.779 17.203 23.806l17.203 18.654h10.406c8.5063 0 11.708 1.0992 17.533 6.0206 6.9472 5.8686 7.0473 6.1669 3.9654 11.836-3.1204 5.7401-3.4399 5.8231-24.634 6.407-19.041 0.5246-21.83 0.1483-24.627-3.3211-1.7351-2.152-6.4922-6.1234-10.571-8.8253-13.289-8.8028-46.332-41.656-55.146-54.83-4.7342-7.0759-9.9567-12.865-11.606-12.865-4.5156 0-15.375 16.233-15.375 22.983 0 3.2441 3.1278 10.747 6.9508 16.673 3.8227 5.9263 9.1663 14.944 11.874 20.038 4.4417 8.3562 5.8087 9.3815 13.963 10.474 9.9882 1.3385 18.277 8.7142 14.673 13.056-1.1019 1.3278-1.4819 4.408-0.84458 6.845 1.5338 5.865-5.4732 7.6593-22.547 5.7735-19.943-2.2025-21.245-2.8594-32.271-16.286-13.571-16.525-27.071-42.894-34.241-66.878-5.7336-19.181-5.7389-19.255-2.2692-31.906 13.874-30.325 4.4324-60.067 0.56422-78.551-0.78674-4.5286-3.6807-13.039-6.4308-18.913-2.7501-5.8736-5.0002-11.952-5.0002-13.508 0-4.1078-7.4728-18.934-11.032-21.888-1.6745-1.3899-10.821-2.8845-20.326-3.3217-17.268-0.79436-31.65-4.9534-44.019-12.73-14.269-8.9711-39.895-27.906-39.895-29.477 0-0.94566-3.7071-5.5774-8.2379-10.293-4.5306-4.7157-8.8081-11.044-9.5051-14.062-0.69699-3.0187-2.9125-9.1938-4.9232-13.722-2.0107-4.5286-4.7396-15.404-6.064-24.167-4.896-40.036 19.7-74.22 36.945-91.622 41.551-39.487 77.458-45.798 86.049-39.192 9.9796 7.6735-31.604 15.598-75.553 83.854-8.6998 13.512-12.536 22.381-12.536 36.52 0 14.163 5.0735 27.629 14.402 38.227 17.084 19.408 56.784 40.243 71.996 37.785 5.1865-0.83841 9.8476-4.0914 16.982-11.852 5.4086-5.8831 9.8338-11.533 9.8338-12.556 9.7827-15.5 24.565-25.022 37.052-36.976 41.443-38.649 86.267-60.261 156.86-75.509 39.537-9.0032 81.887-0.5731 119.63 9.7716 19.645 3.572 43.506 31.955 50.513 18.908 5.1743-9.9272 7.0039-22.778 7.2816-51.145 0.12969-13.355 1.0558-21.954 2.4111-22.408 3.9782-1.3337 16.005 8.4656 25.139 20.482 8.515 11.203 7.8888 17.925 12.101 18.985 10.473 0.91684 21.787-3.0974 30.521-1.8353 11.262 0.43412 18.157 1.6521 28.115 5.7147 2.9358 1.1978 6.8116-3.6484 14.46-10.277 14.058-12.184 32.267-21.061 34.847-16.989 2.8582 4.5121 2.1636 12.654-2.2606 26.503-2.2643 7.0878-4.127 14.85-4.1393 17.25-0.0205 2.3997-1.4096 8.937-3.1054 14.527-2.0858 6.876-2.6799 14.201-1.8366 22.643 2.3808 23.833-13.606 53.496-36.861 68.397-5.5887 3.5811-9.6049 8.7231-13.893 17.787-3.3176 7.0125-6.0325 13.998-6.0333 15.524 0 10.895-36.486 70.596-56.723 92.832-17.404 19.123-24.466 35.25-31.596 72.158-2.2964 11.888-5.6636 26.708-7.4827 32.935-7.7046 26.372-7.9135 28.889-3.749 45.15 3.5148 13.724 4.5257 15.464 9.8046 16.876 12.48 3.3375 20.048 17.139 13.17 24.017-2.7176 2.7175-36.071 3.4646-39.955 0.8948z"/>
  </g>
 </g>
</svg>
